<svg width="464" height="464" xmlns="http://www.w3.org/2000/svg" xmlns:svg="http://www.w3.org/2000/svg">
 <g>
  <title>Layer 1</title>
  <g id="svg_7"/>
  <g id="svg_8"/>
  <g id="svg_9"/>
  <g id="svg_10"/>
  <g id="svg_11"/>
  <g id="svg_12"/>
  <g id="svg_13"/>
  <g id="svg_14"/>
  <g id="svg_15"/>
  <g id="svg_16"/>
  <g id="svg_17"/>
  <g id="svg_18"/>
  <g id="svg_19"/>
  <g id="svg_20"/>
  <g id="svg_21"/>
  <path stroke="#040504" id="svg_25" d="m231.96599,1.466c-127.30311,0 -230.49999,103.19688 -230.49999,230.49999c0,127.30311 103.19688,230.49999 230.49999,230.49999c127.30311,0 230.49999,-103.19688 230.49999,-230.49999c0,-127.30311 -103.19688,-230.49999 -230.49999,-230.49999zm0,433.37297c-24.56615,0 -44.50137,-19.91936 -44.50137,-44.50137s19.91936,-44.50137 44.50137,-44.50137c24.58201,0 44.50137,19.91936 44.50137,44.50137s-19.91936,44.50137 -44.50137,44.50137zm0,-122.1964l-124.62288,-104.06915l55.01613,0l0,-139.2135l139.22935,0l0,139.2135l55.00027,0l-124.62288,104.06915z" stroke-linecap="null" stroke-linejoin="null" stroke-dasharray="null" stroke-width="2" fill="#161916"/>
 </g>
</svg>