<?xml version="1.0" encoding="UTF-8"?>
<svg xmlns="http://www.w3.org/2000/svg" xmlns:xlink="http://www.w3.org/1999/xlink" viewBox="0 0 26 26" version="1.1" width="100px" height="100px">
<g id="surface1">
<path style=" " d="M 12.90625 -0.03125 C 12.863281 -0.0234375 12.820313 -0.0117188 12.78125 0 C 12.316406 0.105469 11.988281 0.523438 12 1 L 12 2.0625 C 6.734375 2.539063 2.539063 6.730469 2.0625 12 L 1 12 C 0.96875 12 0.9375 12 0.90625 12 C 0.355469 12.027344 -0.0742188 12.496094 -0.046875 13.046875 C -0.0195313 13.597656 0.449219 14.027344 1 14 L 2.0625 14 C 2.539063 19.269531 6.734375 23.460938 12 23.9375 L 12 25 C 11.996094 25.359375 12.183594 25.695313 12.496094 25.878906 C 12.808594 26.058594 13.191406 26.058594 13.503906 25.878906 C 13.816406 25.695313 14.003906 25.359375 14 25 L 14 23.9375 C 19.265625 23.460938 23.460938 19.265625 23.9375 14 L 25 14 C 25.359375 14.003906 25.695313 13.816406 25.878906 13.503906 C 26.058594 13.191406 26.058594 12.808594 25.878906 12.496094 C 25.695313 12.183594 25.359375 11.996094 25 12 L 23.9375 12 C 23.460938 6.734375 19.265625 2.539063 14 2.0625 L 14 1 C 14.011719 0.710938 13.894531 0.433594 13.6875 0.238281 C 13.476563 0.0390625 13.191406 -0.0585938 12.90625 -0.03125 Z M 14 4.03125 C 18.191406 4.484375 21.515625 7.808594 21.96875 12 L 21 12 C 20.96875 12 20.9375 12 20.90625 12 C 20.875 12 20.84375 12 20.8125 12 C 20.261719 12.050781 19.855469 12.542969 19.90625 13.09375 C 19.957031 13.644531 20.449219 14.050781 21 14 L 21.96875 14 C 21.515625 18.191406 18.191406 21.515625 14 21.96875 L 14 21 C 14.011719 20.710938 13.894531 20.433594 13.6875 20.238281 C 13.476563 20.039063 13.191406 19.941406 12.90625 19.96875 C 12.863281 19.976563 12.820313 19.988281 12.78125 20 C 12.316406 20.105469 11.988281 20.523438 12 21 L 12 21.9375 C 7.808594 21.480469 4.484375 18.191406 4.03125 14 L 5 14 C 5.359375 14.003906 5.695313 13.816406 5.878906 13.503906 C 6.058594 13.191406 6.058594 12.808594 5.878906 12.496094 C 5.695313 12.183594 5.359375 11.996094 5 12 L 4.03125 12 C 4.484375 7.808594 7.808594 4.519531 12 4.0625 L 12 5 C 11.996094 5.359375 12.183594 5.695313 12.496094 5.878906 C 12.808594 6.058594 13.191406 6.058594 13.503906 5.878906 C 13.816406 5.695313 14.003906 5.359375 14 5 Z M 13 9 C 10.789063 9 9 10.789063 9 13 C 9 15.210938 10.789063 17 13 17 C 15.210938 17 17 15.210938 17 13 C 17 10.789063 15.210938 9 13 9 Z "/>
</g>
</svg>
